<mxfile host="Electron" modified="2024-11-06T07:22:08.040Z" agent="Mozilla/5.0 (Windows NT 10.0; Win64; x64) AppleWebKit/537.36 (KHTML, like Gecko) draw.io/24.2.5 Chrome/120.0.6099.109 Electron/28.1.0 Safari/537.36" etag="bsy4mOmL0p250Udnboln" version="24.2.5" type="device">
  <diagram name="Page-1" id="FyNI9srRcbYWq4_L0GeI">
    <mxGraphModel dx="1098" dy="988" grid="1" gridSize="10" guides="1" tooltips="1" connect="1" arrows="1" fold="1" page="1" pageScale="1" pageWidth="850" pageHeight="1100" math="0" shadow="0">
      <root>
        <mxCell id="0" />
        <mxCell id="1" parent="0" />
        <mxCell id="RhYrQk9mdNenp1Pl9p6A-9" value="0" style="shape=ext;double=1;rounded=0;whiteSpace=wrap;html=1;" parent="1" vertex="1">
          <mxGeometry x="40" y="380" width="50" height="50" as="geometry" />
        </mxCell>
        <mxCell id="RhYrQk9mdNenp1Pl9p6A-17" value="1" style="shape=ext;double=1;rounded=0;whiteSpace=wrap;html=1;" parent="1" vertex="1">
          <mxGeometry x="120" y="380" width="50" height="50" as="geometry" />
        </mxCell>
        <mxCell id="RhYrQk9mdNenp1Pl9p6A-18" value="2" style="shape=ext;double=1;rounded=0;whiteSpace=wrap;html=1;" parent="1" vertex="1">
          <mxGeometry x="200" y="380" width="50" height="50" as="geometry" />
        </mxCell>
        <mxCell id="RhYrQk9mdNenp1Pl9p6A-30" value="n-1" style="shape=ext;double=1;rounded=0;whiteSpace=wrap;html=1;" parent="1" vertex="1">
          <mxGeometry x="510" y="380" width="50" height="50" as="geometry" />
        </mxCell>
        <mxCell id="RhYrQk9mdNenp1Pl9p6A-32" value="n" style="shape=ext;double=1;rounded=0;whiteSpace=wrap;html=1;" parent="1" vertex="1">
          <mxGeometry x="590" y="380" width="50" height="50" as="geometry" />
        </mxCell>
        <mxCell id="RhYrQk9mdNenp1Pl9p6A-36" value="&lt;font style=&quot;font-size: 30px;&quot;&gt;Controller&lt;/font&gt;" style="shape=ext;double=1;rounded=0;whiteSpace=wrap;html=1;" parent="1" vertex="1">
          <mxGeometry x="250" y="500" width="200" height="80" as="geometry" />
        </mxCell>
        <mxCell id="RhYrQk9mdNenp1Pl9p6A-45" value="" style="endArrow=none;dashed=1;html=1;dashPattern=1 3;strokeWidth=2;rounded=0;entryX=0;entryY=0.5;entryDx=0;entryDy=0;exitX=1;exitY=0.5;exitDx=0;exitDy=0;" parent="1" source="RhYrQk9mdNenp1Pl9p6A-18" target="RhYrQk9mdNenp1Pl9p6A-30" edge="1">
          <mxGeometry width="50" height="50" relative="1" as="geometry">
            <mxPoint x="250" y="400" as="sourcePoint" />
            <mxPoint x="300" y="350" as="targetPoint" />
          </mxGeometry>
        </mxCell>
      </root>
    </mxGraphModel>
  </diagram>
</mxfile>
